:SAMPLES-PER-SECOND 30
:FULLY-SPECIFIED
:DEGREES
33
root  0.493669 40.3636 0.541315 -179.123 -76.6815 174.744
RightUpLeg  -13.8307 -15.4035 -8.16554
RightLeg  19.2712 -0.00424506 -0.233809
RightFoot  -2.52745 -0.420841 5.23252
RightToes  0.000482159 0.542163 -0.142577
Spine  10.6029 -2.1401 -6.0018
Spine1  7.44909 -3.50229 2.10803
HEad  11.2804 -2.11215 -2.64527
LeftShoulder1  7.17129 -10.9544 -43.125
LeftArm  -15.2208 0.16992 -33.3
LeftForeArm  20.5209 -4.54742 -4.04484
LeftHand  -0.25398 0.0180481 5.50724
RightShoulder  4.0454 7.26529 31.6181
RightArm  -11.542 -21.5787 43.3479
RightForeArm  16.9598 11.0401 5.54814
RightHand  -0.906089 1.83524 -14.6759
LeftUpLeg  3.88334 8.78819 4.43029
LeftLeg  10.588 18.8546 -3.01169
LeftFoot  -10.9483 0.0829218 -5.06762
LeftToes  1.06247e-005 4.65855e-005 -8.18501e-006
34
root  0.221687 40.325 0.261562 -178.924 -75.7714 174.795
RightUpLeg  -14.5188 -17.5301 -8.36637
RightLeg  15.7658 0.0211128 -0.0586568
RightFoot  -1.99353 -0.432923 5.1272
RightToes  0.000482159 0.542163 -0.142577
Spine  11.3534 -2.52639 -6.48824
Spine1  7.42669 -4.17877 2.9005
HEad  10.7839 -0.369222 -3.52237
LeftShoulder1  7.35259 -11.1289 -43.7214
LeftArm  -11.4914 -2.54708 -35.8263
LeftForeArm  25.9521 -6.12529 -5.42557
LeftHand  -0.25398 0.0180481 5.50724
RightShoulder  4.25579 7.66943 32.1466
RightArm  -10.1262 -24.0413 45.4751
RightForeArm  20.2613 10.7395 5.85023
RightHand  -0.560377 0.00980974 -12.0446
LeftUpLeg  4.18937 8.82996 4.67902
LeftLeg  10.8136 19.3194 -2.71733
LeftFoot  -11.4242 0.0640846 -5.86678
LeftToes  1.06247e-005 4.65855e-005 -8.18501e-006
35
root  -0.106415 40.2759 -0.0586315 -178.175 -74.711 174.236
RightUpLeg  -14.8876 -18.3268 -9.12714
RightLeg  12.3643 -1.9799 0.469545
RightFoot  -1.53622 -0.410214 4.65627
RightToes  0.000482159 0.542163 -0.142577
Spine  11.9547 -2.73195 -6.87395
Spine1  7.61516 -4.64816 3.63507
HEad  10.2747 1.06297 -4.34262
LeftShoulder1  7.45795 -11.3221 -43.7734
LeftArm  -6.65154 -5.0506 -38.4093
LeftForeArm  31.4379 -8.93553 -6.68674
LeftHand  -0.25398 0.0180481 5.50724
RightShoulder  4.41954 7.98722 32.5198
RightArm  -7.086 -26.179 46.563
RightForeArm  23.7149 11.4037 6.217
RightHand  -0.330813 -1.42484 -9.49495
LeftUpLeg  4.76677 8.78551 4.78858
LeftLeg  10.8187 19.8957 -2.51852
LeftFoot  -11.7945 0.0432152 -6.93097
LeftToes  1.06247e-005 4.65855e-005 -8.18501e-006
36
root  -0.502434 40.2126 -0.436611 -177.234 -73.4549 173.472
RightUpLeg  -14.9449 -17.3311 -10.4129
RightLeg  9.24502 -5.87088 1.39436
RightFoot  -1.09815 -0.406614 4.44819
RightToes  0.000482159 0.542163 -0.142577
Spine  12.2689 -2.81318 -7.17433
Spine1  8.08775 -4.96198 4.27178
HEad  9.83454 2.37408 -5.09245
LeftShoulder1  7.53412 -11.5044 -43.6794
LeftArm  0.147758 -6.93309 -40.7942
LeftForeArm  33.3595 -13.2962 -6.62138
LeftHand  -0.25398 0.0180481 5.50724
RightShoulder  4.51264 8.19851 32.621
RightArm  -3.29099 -27.7658 46.945
RightForeArm  25.5892 12.5694 6.47761
RightHand  -0.227432 -2.13881 -7.70764
LeftUpLeg  5.54415 8.76786 4.85533
LeftLeg  10.7491 20.982 -2.30843
LeftFoot  -12.2072 0.0155026 -7.62803
LeftToes  1.06247e-005 4.65855e-005 -8.18501e-006
37
root  -0.965551 40.1197 -0.889234 -176.423 -72.0607 172.9
RightUpLeg  -15.0245 -15.9993 -11.4935
RightLeg  6.84128 -9.37531 2.23108
RightFoot  -0.491194 -0.426619 4.45293
RightToes  0.000482159 0.542163 -0.142577
Spine  12.3895 -2.8723 -7.30813
Spine1  8.5836 -5.16991 4.64085
HEad  9.5208 3.69335 -5.65464
LeftShoulder1  7.59357 -11.6271 -43.6671
LeftArm  6.71771 -7.91291 -42.5484
LeftForeArm  31.235 -18.4674 -4.88623
LeftHand  -0.25398 0.0180481 5.50724
RightShoulder  4.55349 8.3393 32.5073
RightArm  -0.0907586 -28.7097 46.8867
RightForeArm  25.1616 13.6153 6.57471
RightHand  -0.188832 -2.52678 -7.05274
LeftUpLeg  6.39586 8.89753 5.06229
LeftLeg  10.7834 22.1066 -2.1442
LeftFoot  -12.7342 -0.0232475 -8.14704
LeftToes  1.06247e-005 4.65855e-005 -8.18501e-006
38
root  -1.48082 39.9972 -1.42067 -175.665 -70.5674 172.417
RightUpLeg  -15.4492 -15.5474 -11.8999
RightLeg  6.05161 -11.1111 2.40993
RightFoot  0.416151 -0.427292 4.1768
RightToes  0.000482159 0.542163 -0.142577
Spine  12.5527 -2.90042 -7.3424
Spine1  8.85803 -5.28327 4.80157
HEad  9.33335 5.00005 -5.97829
LeftShoulder1  7.63643 -11.6888 -43.7393
LeftArm  8.33454 -8.07424 -43.3251
LeftForeArm  29.4943 -23.1712 -3.54759
LeftHand  -0.25398 0.0180481 5.50724
RightShoulder  4.55256 8.38446 32.3531
RightArm  1.5738 -28.9714 46.4434
RightForeArm  23.4532 14.2412 6.57488
RightHand  -0.181848 -2.77288 -7.3256
LeftUpLeg  7.40347 9.05874 5.38013
LeftLeg  10.7336 22.7373 -2.15588
LeftFoot  -13.1563 -0.0685068 -9.28047
LeftToes  1.06247e-005 4.65855e-005 -8.18501e-006
39
root  -2.03901 39.8717 -2.03163 -175.143 -69.0242 172.148
RightUpLeg  -16.206 -16.1783 -11.4993
RightLeg  7.16063 -11.3409 1.84052
RightFoot  1.81406 -0.39057 3.49716
RightToes  0.000482159 0.542163 -0.142577
Spine  12.8449 -2.87485 -7.28281
Spine1  9.00028 -5.34486 4.97099
HEad  9.23562 6.26765 -6.215
LeftShoulder1  7.67411 -11.7235 -43.8614
LeftArm  5.01987 -7.78068 -43.1737
LeftForeArm  30.2901 -26.8841 -4.1279
LeftHand  -0.25398 0.0180481 5.50724
RightShoulder  4.51775 8.31241 32.292
RightArm  1.50602 -28.366 45.6165
RightForeArm  22.0035 14.2857 6.57297
RightHand  -0.202388 -2.69912 -8.03773
LeftUpLeg  8.64297 9.13714 5.74627
LeftLeg  10.4742 23.492 -2.12507
LeftFoot  -13.2506 -0.0947764 -10.4281
LeftToes  1.06247e-005 4.65855e-005 -8.18501e-006
40
root  -2.65596 39.7659 -2.72486 -175.779 -67.5984 173.083
RightUpLeg  -17.0208 -17.6717 -10.0736
RightLeg  9.34441 -10.4063 1.00234
RightFoot  3.66837 -0.313796 2.57717
RightToes  0.000482159 0.542163 -0.142577
Spine  13.1132 -2.95797 -6.52634
Spine1  9.25123 -5.42769 5.03189
HEad  9.19356 7.5207 -6.59454
LeftShoulder1  7.70921 -11.7369 -44.0317
LeftArm  1.8705 -7.27498 -42.4396
LeftForeArm  30.4259 -29.5304 -4.73756
LeftHand  -0.25398 0.0180481 5.50724
RightShoulder  4.4797 8.20163 32.3288
RightArm  -0.149274 -26.7718 44.5602
RightForeArm  21.465 13.6861 6.58855
RightHand  -0.239259 -2.40233 -8.7637
LeftUpLeg  10.035 9.29396 6.55484
LeftLeg  10.2029 24.79 -1.74717
LeftFoot  -13.1136 -0.084611 -10.5096
LeftToes  1.06247e-005 4.65855e-005 -8.18501e-006
41
root  -3.35137 39.6698 -3.49444 -178.348 -66.3737 176.123
RightUpLeg  -17.8048 -19.8844 -7.37825
RightLeg  11.8817 -7.9215 0.358859
RightFoot  5.08613 -0.168711 1.40668
RightToes  0.000482159 0.542163 -0.142577
Spine  13.2264 -3.32578 -4.26399
Spine1  9.66008 -5.51728 4.65675
HEad  9.25061 8.7693 -7.22823
LeftShoulder1  7.73437 -11.7202 -44.2334
LeftArm  -1.09199 -6.45635 -41.201
LeftForeArm  30.6276 -31.1395 -5.10028
LeftHand  -0.25398 0.0180481 5.50724
RightShoulder  4.48793 8.19251 32.4291
RightArm  -2.81281 -24.5159 43.439
RightForeArm  21.2139 12.9086 6.45353
RightHand  -0.269975 -2.16361 -9.28249
LeftUpLeg  11.5965 9.76612 8.41363
LeftLeg  9.98468 25.3213 -1.17958
LeftFoot  -13.0312 -0.0837558 -10.8981
LeftToes  1.06247e-005 4.65855e-005 -8.18501e-006
42
root  -4.10365 39.5637 -4.33434 177.857 -65.1511 -179.491
RightUpLeg  -18.5618 -22.3027 -3.81866
RightLeg  14.6744 -4.17192 -0.0513868
RightFoot  4.83263 0.0118624 0.137338
RightToes  0.000482159 0.542163 -0.142577
Spine  13.2805 -3.82534 -0.833875
Spine1  10.0801 -5.50003 3.99746
HEad  9.54794 9.99986 -8.06255
LeftShoulder1  7.76578 -11.7067 -44.4629
LeftArm  -3.88521 -5.0282 -39.5042
LeftForeArm  30.7867 -32.0524 -5.30925
LeftHand  -0.25398 0.0180481 5.50724
RightShoulder  4.57953 8.3605 32.6574
RightArm  -5.49034 -22.1061 42.1931
RightForeArm  20.0724 12.6864 6.09243
RightHand  -0.304832 -1.87883 -9.74262
LeftUpLeg  13.2082 11.0835 11.3064
LeftLeg  10.2213 23.8887 -0.303909
LeftFoot  -13.0067 -0.120276 -13.6355
LeftToes  1.06247e-005 4.65855e-005 -8.18501e-006
